<svg width="418" height="175" viewBox="0 0 418 175" fill="none" xmlns="http://www.w3.org/2000/svg">
<g clip-path="url(#clip0_240_22)">
<path d="M51.1244 1.02927V42.5092C51.1244 49.1678 49.5097 54.1638 46.2882 57.4892C43.0588 60.8145 38.6342 62.4772 33.0144 62.4772C27.3946 62.4772 22.8592 60.7512 19.6377 57.2833C16.4083 53.8154 14.8015 48.7245 14.8015 41.9946V5.82729L2.14502 23.2063V42.5092C2.14502 47.7269 2.86531 52.3111 4.30588 56.254C5.74645 60.197 7.80441 63.5065 10.4798 66.1826C13.1551 68.8587 16.3766 70.8698 20.1522 72.2079C23.9198 73.5459 28.1386 74.211 32.8086 74.211C37.4786 74.211 41.8082 73.5459 45.6154 72.2079C49.4227 70.8698 52.6679 68.8429 55.3433 66.1351C58.0186 63.4273 60.0924 60.0465 61.5646 55.9928C63.0448 51.9469 63.7809 47.2439 63.7809 41.8916V1.02927H51.1244Z" fill="#050528"/>
<path d="M130.665 44.6232C129.699 42.3905 128.243 40.4348 126.287 38.7563C124.332 37.0778 121.918 35.6526 119.037 34.4808C116.156 33.317 112.824 32.256 109.056 31.2901C105.557 30.4667 102.708 29.6828 100.515 28.9227C98.3151 28.1706 96.5658 27.363 95.2677 26.5079C93.9617 25.6528 93.0673 24.6869 92.5923 23.6259C92.1095 22.565 91.8721 21.3457 91.8721 19.968V19.7622C91.8721 17.3631 92.901 15.3363 94.959 13.6894C97.017 12.0426 99.8981 11.2191 103.602 11.2191C106.895 11.2191 110.148 11.8605 113.378 13.1273C116.599 14.3941 119.86 16.2309 123.153 18.6299L129.944 9.05765C126.24 6.11233 122.274 3.86375 118.056 2.31984C113.837 0.775918 109.088 0 103.808 0C100.238 0 96.9457 0.514639 93.93 1.54392C90.9064 2.5732 88.3181 3.99835 86.1573 5.81938C83.9964 7.64042 82.3025 9.83357 81.0678 12.4068C79.833 14.98 79.2156 17.8065 79.2156 20.8944V21.1002C79.2156 24.3939 79.7459 27.2126 80.8066 29.5403C81.8751 31.876 83.4186 33.8474 85.437 35.4626C87.4633 37.0778 89.9645 38.4475 92.9485 39.5797C95.9326 40.7119 99.344 41.7254 103.191 42.6121C106.547 43.3722 109.278 44.1244 111.367 44.8766C113.465 45.6366 115.111 46.4601 116.306 47.3468C117.509 48.2415 118.333 49.1837 118.776 50.1813C119.227 51.1789 119.449 52.327 119.449 53.6254V53.8313C119.449 56.5074 118.301 58.6926 115.998 60.3712C113.702 62.0497 110.599 62.8889 106.689 62.8889C102.225 62.8889 98.1963 62.0893 94.5949 60.4741C90.9935 58.8589 87.4474 56.547 83.9489 53.5225L76.3345 62.5802C80.6562 66.4914 85.3499 69.3971 90.4315 71.2815C95.5051 73.1659 100.824 74.1081 106.381 74.1081C110.148 74.1081 113.615 73.633 116.773 72.6671C119.924 71.7091 122.639 70.2997 124.902 68.447C127.166 66.5943 128.931 64.3299 130.198 61.6538C131.472 58.9777 132.105 55.9611 132.105 52.5962V52.3903C132.105 49.445 131.622 46.8559 130.665 44.6232Z" fill="#050528"/>
<path d="M140.337 1.02927V12.763H163.18V73.0788H163.465L175.94 55.9532V12.763H198.783V1.02927H140.337Z" fill="#050528"/>
<path d="M263.3 1.02927L241.691 56.4045L219.98 1.02927H205.986L235.929 73.5934H247.145L276.985 1.02927H263.3Z" fill="#050528"/>
</g>
<path d="M63.1307 88H2V100.871H63.1307V88Z" fill="#050528"/>
<path d="M9.08978 137.587C8.06447 137.587 7.13236 137.437 6.2863 137.129C5.44023 136.821 4.71606 136.363 4.1066 135.762C3.49715 135.154 3.0311 134.402 2.70128 133.508C2.37145 132.613 2.20654 131.575 2.20654 130.416V120.804H4.07792V130.301C4.07792 132.098 4.52964 133.472 5.42589 134.438C6.32215 135.397 7.56256 135.877 9.13997 135.877C10.7174 135.877 11.8861 135.418 12.7824 134.51C13.6786 133.594 14.1303 132.234 14.1303 130.423V120.812H16.0017V130.28C16.0017 131.489 15.8368 132.556 15.507 133.472C15.1771 134.388 14.7039 135.147 14.1016 135.762C13.4994 136.377 12.768 136.836 11.9219 137.143C11.0759 137.451 10.1366 137.601 9.09695 137.601L9.08978 137.587Z" fill="black"/>
<path d="M20.8914 120.797H22.6409L33.0733 134.044V120.797H34.8945V137.329H33.4032L22.7055 123.774V137.329H20.8843V120.797H20.8914Z" fill="black"/>
<path d="M40.2222 120.797H42.0935V137.329H40.2222V120.797Z" fill="black"/>
<path d="M55.1071 137.616C53.8452 137.616 52.698 137.387 51.6655 136.929C50.633 136.471 49.7439 135.855 49.0054 135.075C48.2669 134.295 47.6933 133.393 47.2917 132.363C46.8902 131.332 46.6895 130.251 46.6895 129.113V129.063C46.6895 127.933 46.8974 126.845 47.3061 125.807C47.7148 124.769 48.2955 123.86 49.0341 123.08C49.7726 122.3 50.6688 121.677 51.7085 121.212C52.7481 120.747 53.9025 120.518 55.1644 120.518C56.4264 120.518 57.5736 120.747 58.6061 121.205C59.6386 121.663 60.5276 122.279 61.2662 123.059C62.0047 123.839 62.5783 124.741 62.9798 125.771C63.3813 126.802 63.5821 127.882 63.5821 129.02V129.07C63.5821 130.201 63.3741 131.289 62.9655 132.327C62.5568 133.365 61.976 134.273 61.2375 135.053C60.499 135.834 59.6027 136.456 58.563 136.921C57.5234 137.387 56.369 137.616 55.1071 137.616ZM55.1573 135.891C56.1037 135.891 56.9785 135.712 57.7743 135.361C58.5702 135.003 59.2514 134.524 59.8178 133.908C60.3842 133.293 60.8288 132.577 61.1586 131.761C61.4813 130.946 61.6462 130.058 61.6462 129.113V129.063C61.6462 128.119 61.4813 127.231 61.1586 126.408C60.8359 125.578 60.3842 124.862 59.7963 124.247C59.2155 123.631 58.52 123.145 57.7241 122.78C56.9283 122.415 56.0535 122.236 55.1071 122.236C54.1606 122.236 53.2859 122.415 52.49 122.765C51.6941 123.123 51.013 123.603 50.4466 124.218C49.8801 124.834 49.4356 125.549 49.1129 126.365C48.7903 127.181 48.6254 128.068 48.6254 129.013V129.063C48.6254 130.008 48.7903 130.895 49.1129 131.718C49.4356 132.549 49.8873 133.264 50.4752 133.88C51.056 134.495 51.7515 134.982 52.5474 135.347C53.3433 135.712 54.218 135.891 55.1644 135.891H55.1573Z" fill="black"/>
<path d="M67.9989 120.797H69.7484L80.1808 134.044V120.797H82.002V137.329H80.5106L69.8129 123.774V137.329H67.9917V120.797H67.9989Z" fill="black"/>
<path d="M94.7358 120.797H100.924C101.849 120.797 102.702 120.919 103.462 121.162C104.222 121.406 104.881 121.756 105.419 122.2C105.957 122.644 106.38 123.195 106.674 123.839C106.968 124.483 107.111 125.213 107.111 126.036V126.086C107.111 126.981 106.939 127.768 106.595 128.433C106.251 129.106 105.778 129.664 105.19 130.122C104.602 130.581 103.914 130.924 103.125 131.153C102.336 131.382 101.504 131.497 100.622 131.497H96.6072V137.329H94.7358V120.797ZM100.701 129.793C101.382 129.793 101.999 129.707 102.558 129.536C103.118 129.364 103.598 129.113 104 128.791C104.401 128.469 104.709 128.09 104.924 127.646C105.14 127.203 105.247 126.709 105.247 126.158V126.108C105.247 124.927 104.838 124.032 104.028 123.424C103.218 122.815 102.142 122.515 100.802 122.515H96.6144V129.786H100.708L100.701 129.793Z" fill="black"/>
<path d="M118.706 137.616C117.444 137.616 116.297 137.387 115.264 136.929C114.232 136.471 113.343 135.855 112.604 135.075C111.866 134.295 111.292 133.393 110.89 132.363C110.489 131.332 110.288 130.251 110.288 129.113V129.063C110.288 127.933 110.496 126.845 110.905 125.807C111.313 124.769 111.894 123.86 112.633 123.08C113.371 122.3 114.267 121.677 115.307 121.212C116.347 120.747 117.501 120.518 118.763 120.518C120.025 120.518 121.172 120.747 122.205 121.205C123.237 121.663 124.126 122.279 124.865 123.059C125.603 123.839 126.177 124.741 126.578 125.771C126.98 126.802 127.181 127.882 127.181 129.02V129.07C127.181 130.201 126.973 131.289 126.564 132.327C126.155 133.365 125.575 134.273 124.836 135.053C124.098 135.834 123.201 136.456 122.162 136.921C121.122 137.387 119.968 137.616 118.706 137.616ZM118.756 135.891C119.702 135.891 120.577 135.712 121.373 135.361C122.169 135.003 122.85 134.524 123.416 133.908C123.983 133.293 124.427 132.577 124.757 131.761C125.08 130.946 125.245 130.058 125.245 129.113V129.063C125.245 128.119 125.08 127.231 124.757 126.408C124.435 125.578 123.983 124.862 123.395 124.247C122.814 123.631 122.119 123.145 121.323 122.78C120.527 122.415 119.652 122.236 118.706 122.236C117.759 122.236 116.885 122.415 116.089 122.765C115.293 123.123 114.612 123.603 114.045 124.218C113.479 124.834 113.034 125.549 112.712 126.365C112.389 127.181 112.224 128.068 112.224 129.013V129.063C112.224 130.008 112.389 130.895 112.712 131.718C113.034 132.549 113.486 133.264 114.074 133.88C114.655 134.495 115.35 134.982 116.146 135.347C116.942 135.712 117.817 135.891 118.763 135.891H118.756Z" fill="black"/>
<path d="M138.229 137.587C137.204 137.587 136.272 137.437 135.426 137.129C134.58 136.821 133.856 136.363 133.246 135.762C132.637 135.154 132.171 134.402 131.841 133.508C131.511 132.613 131.346 131.575 131.346 130.416V120.804H133.218V130.301C133.218 132.098 133.669 133.472 134.566 134.438C135.462 135.397 136.702 135.877 138.28 135.877C139.857 135.877 141.026 135.418 141.922 134.51C142.818 133.594 143.27 132.234 143.27 130.423V120.812H145.141V130.28C145.141 131.489 144.976 132.556 144.647 133.472C144.317 134.388 143.844 135.147 143.241 135.762C142.639 136.377 141.908 136.836 141.062 137.143C140.216 137.451 139.276 137.601 138.237 137.601L138.229 137.587Z" fill="black"/>
<path d="M150.031 120.797H157.144C158.169 120.797 159.08 120.94 159.869 121.234C160.664 121.527 161.324 121.928 161.84 122.45C162.249 122.858 162.564 123.338 162.787 123.889C163.009 124.44 163.117 125.048 163.117 125.707V125.757C163.117 126.451 163.009 127.067 162.787 127.61C162.564 128.154 162.256 128.627 161.855 129.027C161.453 129.428 160.98 129.757 160.428 130.022C159.876 130.28 159.281 130.466 158.635 130.581L163.719 137.337H161.424L156.628 130.91H151.91V137.337H150.038V120.804L150.031 120.797ZM156.986 129.228C157.603 129.228 158.169 129.149 158.693 128.992C159.216 128.834 159.661 128.612 160.041 128.319C160.421 128.026 160.715 127.675 160.93 127.26C161.145 126.845 161.252 126.365 161.252 125.828V125.778C161.252 124.755 160.88 123.953 160.141 123.381C159.395 122.808 158.356 122.515 157.015 122.515H151.903V129.221H156.986V129.228Z" fill="black"/>
<path d="M175.184 120.797H177.055V135.605H186.377V137.329H175.184V120.797Z" fill="black"/>
<path d="M196.436 120.683H198.185L205.735 137.329H203.721L201.777 132.957H192.765L190.8 137.329H188.886L196.436 120.683ZM201.046 131.26L197.282 122.851L193.496 131.26H201.046Z" fill="black"/>
<path d="M222.721 137.566C221.395 137.566 220.183 137.351 219.086 136.914C217.989 136.478 216.942 135.812 215.953 134.918L217.114 133.551C217.982 134.338 218.857 134.925 219.738 135.311C220.62 135.698 221.638 135.891 222.793 135.891C223.947 135.891 224.808 135.626 225.482 135.096C226.156 134.567 226.485 133.894 226.485 133.078V133.028C226.485 132.649 226.421 132.305 226.299 131.998C226.177 131.69 225.955 131.411 225.639 131.16C225.324 130.91 224.887 130.681 224.327 130.473C223.768 130.266 223.051 130.072 222.183 129.886C221.237 129.679 220.412 129.443 219.71 129.178C219.007 128.913 218.426 128.584 217.967 128.212C217.509 127.832 217.172 127.396 216.949 126.888C216.727 126.387 216.619 125.793 216.619 125.12V125.07C216.619 124.426 216.756 123.825 217.021 123.273C217.286 122.722 217.666 122.243 218.154 121.842C218.641 121.441 219.215 121.126 219.882 120.897C220.541 120.668 221.273 120.554 222.062 120.554C223.273 120.554 224.334 120.726 225.245 121.062C226.156 121.398 227.03 121.906 227.884 122.586L226.794 124.025C226.019 123.395 225.245 122.937 224.463 122.658C223.682 122.372 222.865 122.236 222.011 122.236C220.921 122.236 220.061 122.493 219.43 123.001C218.799 123.51 218.484 124.147 218.484 124.905V124.955C218.484 125.349 218.548 125.7 218.67 126.007C218.792 126.315 219.021 126.601 219.351 126.859C219.681 127.117 220.14 127.353 220.721 127.567C221.301 127.782 222.047 127.983 222.965 128.169C224.808 128.577 226.163 129.142 227.038 129.872C227.912 130.602 228.35 131.59 228.35 132.849V132.899C228.35 133.608 228.206 134.252 227.927 134.824C227.647 135.397 227.26 135.891 226.765 136.299C226.27 136.707 225.682 137.022 224.987 137.243C224.291 137.465 223.539 137.573 222.714 137.573L222.721 137.566Z" fill="black"/>
<path d="M240.231 137.616C239.033 137.616 237.929 137.394 236.918 136.957C235.907 136.513 235.032 135.912 234.294 135.154C233.555 134.388 232.975 133.486 232.552 132.448C232.128 131.411 231.928 130.301 231.928 129.121V129.07C231.928 127.904 232.136 126.802 232.552 125.764C232.967 124.726 233.548 123.817 234.294 123.037C235.04 122.257 235.921 121.642 236.947 121.198C237.972 120.747 239.091 120.525 240.31 120.525C241.07 120.525 241.751 120.59 242.353 120.711C242.962 120.84 243.522 121.012 244.045 121.241C244.569 121.47 245.049 121.742 245.486 122.064C245.931 122.386 246.354 122.744 246.763 123.137L245.486 124.504C244.776 123.846 244.016 123.302 243.206 122.873C242.396 122.45 241.421 122.236 240.281 122.236C239.363 122.236 238.517 122.407 237.735 122.758C236.954 123.102 236.273 123.588 235.699 124.197C235.126 124.812 234.674 125.528 234.351 126.358C234.029 127.181 233.864 128.068 233.864 129.013V129.063C233.864 130.022 234.029 130.917 234.351 131.747C234.674 132.577 235.126 133.293 235.699 133.908C236.273 134.524 236.954 135.003 237.735 135.361C238.517 135.719 239.363 135.891 240.281 135.891C241.414 135.891 242.396 135.683 243.213 135.261C244.031 134.846 244.841 134.259 245.63 133.5L246.863 134.703C246.44 135.147 245.988 135.54 245.522 135.898C245.056 136.249 244.554 136.556 244.024 136.807C243.486 137.057 242.912 137.258 242.296 137.394C241.679 137.537 240.991 137.608 240.238 137.608L240.231 137.616Z" fill="black"/>
<path d="M250.756 120.797H252.627V137.329H250.756V120.797Z" fill="black"/>
<path d="M257.948 120.797H269.922V122.501H259.819V128.147H268.861V129.851H259.819V135.633H270.044V137.337H257.955V120.804L257.948 120.797Z" fill="black"/>
<path d="M274.274 120.797H276.023L286.456 134.044V120.797H288.277V137.329H286.786L276.088 123.774V137.329H274.267V120.797H274.274Z" fill="black"/>
<path d="M301.011 137.616C299.814 137.616 298.709 137.394 297.698 136.957C296.687 136.513 295.813 135.912 295.074 135.154C294.336 134.388 293.755 133.486 293.332 132.448C292.909 131.411 292.708 130.301 292.708 129.121V129.07C292.708 127.904 292.916 126.802 293.332 125.764C293.748 124.726 294.328 123.817 295.074 123.037C295.82 122.257 296.702 121.642 297.727 121.198C298.752 120.747 299.871 120.525 301.09 120.525C301.85 120.525 302.531 120.59 303.133 120.711C303.743 120.84 304.302 121.012 304.825 121.241C305.349 121.47 305.829 121.742 306.267 122.064C306.711 122.386 307.134 122.744 307.543 123.137L306.267 124.504C305.557 123.846 304.797 123.302 303.986 122.873C303.176 122.45 302.201 122.236 301.061 122.236C300.143 122.236 299.297 122.407 298.516 122.758C297.734 123.102 297.053 123.588 296.479 124.197C295.906 124.812 295.454 125.528 295.131 126.358C294.809 127.181 294.644 128.068 294.644 129.013V129.063C294.644 130.022 294.809 130.917 295.131 131.747C295.454 132.577 295.906 133.293 296.479 133.908C297.053 134.524 297.734 135.003 298.516 135.361C299.297 135.719 300.143 135.891 301.061 135.891C302.194 135.891 303.176 135.683 303.994 135.261C304.811 134.846 305.621 134.259 306.41 133.5L307.643 134.703C307.22 135.147 306.768 135.54 306.302 135.898C305.836 136.249 305.334 136.556 304.804 136.807C304.266 137.057 303.693 137.258 303.076 137.394C302.459 137.537 301.771 137.608 301.018 137.608L301.011 137.616Z" fill="black"/>
<path d="M311.379 120.797H323.353V122.501H313.25V128.147H322.292V129.851H313.25V135.633H323.475V137.337H311.386V120.804L311.379 120.797Z" fill="black"/>
<path d="M344.619 134.989C343.859 135.805 343.042 136.442 342.16 136.893C341.278 137.344 340.289 137.566 339.206 137.566C338.467 137.566 337.772 137.458 337.134 137.236C336.496 137.014 335.944 136.7 335.478 136.292C335.011 135.884 334.646 135.397 334.388 134.824C334.13 134.252 334 133.629 334 132.935V132.885C334 131.783 334.345 130.838 335.04 130.051C335.736 129.264 336.718 128.62 337.994 128.111C337.428 127.453 337.005 126.845 336.739 126.294C336.467 125.743 336.338 125.134 336.338 124.476V124.426C336.338 123.889 336.445 123.381 336.661 122.901C336.876 122.422 337.17 122.007 337.55 121.649C337.93 121.291 338.389 121.012 338.919 120.812C339.457 120.604 340.052 120.504 340.719 120.504C341.3 120.504 341.837 120.604 342.325 120.797C342.812 120.998 343.236 121.262 343.594 121.599C343.953 121.935 344.232 122.329 344.433 122.78C344.641 123.231 344.741 123.71 344.741 124.232V124.283C344.741 125.335 344.397 126.215 343.702 126.902C343.006 127.589 342.052 128.154 340.841 128.577L344.626 132.427C344.992 131.89 345.336 131.318 345.666 130.702C345.996 130.087 346.311 129.435 346.613 128.741L348.147 129.45C347.781 130.237 347.408 130.974 347.021 131.668C346.634 132.363 346.211 133.007 345.752 133.608L348.642 136.556L347.222 137.644L344.619 134.975V134.989ZM339.321 135.984C340.109 135.984 340.848 135.791 341.529 135.404C342.21 135.018 342.855 134.495 343.458 133.837L339.034 129.278C337.93 129.686 337.127 130.201 336.618 130.824C336.108 131.446 335.858 132.112 335.858 132.821V132.871C335.858 133.314 335.944 133.722 336.108 134.102C336.273 134.481 336.51 134.81 336.818 135.096C337.127 135.383 337.492 135.597 337.915 135.755C338.338 135.912 338.804 135.991 339.313 135.991L339.321 135.984ZM339.794 127.532C340.848 127.167 341.644 126.73 342.182 126.222C342.719 125.714 342.985 125.098 342.985 124.39V124.34C342.985 123.681 342.762 123.13 342.325 122.701C341.88 122.272 341.321 122.05 340.647 122.05C339.887 122.05 339.285 122.279 338.826 122.737C338.367 123.195 338.138 123.76 338.138 124.44V124.49C338.138 124.726 338.166 124.962 338.224 125.184C338.281 125.413 338.367 125.642 338.496 125.879C338.625 126.115 338.79 126.365 339.005 126.637C339.22 126.909 339.486 127.203 339.801 127.532H339.794Z" fill="black"/>
<path d="M2.46484 149.138H4.33622V163.945H13.6573V165.67H2.46484V149.138Z" fill="black"/>
<path d="M22.5266 149.024H24.2761L31.8262 165.67H29.8114L27.8683 161.297H18.8556L16.891 165.67H14.9766L22.5266 149.024ZM27.137 159.601L23.3727 151.192L19.5869 159.601H27.137Z" fill="black"/>
<path d="M45.1476 150.863H39.5908V149.138H52.5829V150.863H47.019V165.67H45.1476V150.863Z" fill="black"/>
<path d="M55.394 149.138H67.368V150.841H57.2654V156.488H66.3068V158.191H57.2654V163.974H67.4899V165.677H55.4012V149.145L55.394 149.138Z" fill="black"/>
<path d="M78.1086 165.956C76.9112 165.956 75.807 165.735 74.796 165.298C73.785 164.854 72.9103 164.253 72.1718 163.495C71.4333 162.729 70.8525 161.827 70.4295 160.789C70.0064 159.752 69.8057 158.642 69.8057 157.461V157.411C69.8057 156.245 70.0136 155.143 70.4295 154.105C70.8453 153.067 71.4261 152.158 72.1718 151.378C72.9175 150.598 73.7994 149.983 74.8247 149.539C75.85 149.088 76.9685 148.866 78.1874 148.866C78.9475 148.866 79.6286 148.93 80.2309 149.052C80.8404 149.181 81.3996 149.353 81.923 149.582C82.4465 149.811 82.9268 150.083 83.3642 150.405C83.8088 150.727 84.2318 151.085 84.6405 151.478L83.3642 152.845C82.6544 152.187 81.8944 151.643 81.0841 151.214C80.2739 150.791 79.2988 150.577 78.1588 150.577C77.241 150.577 76.3949 150.748 75.6134 151.099C74.8319 151.443 74.1507 151.929 73.5771 152.538C73.0035 153.153 72.5518 153.869 72.2291 154.699C71.9065 155.522 71.7416 156.409 71.7416 157.354V157.404C71.7416 158.363 71.9065 159.258 72.2291 160.088C72.5518 160.918 73.0035 161.634 73.5771 162.249C74.1507 162.865 74.8319 163.344 75.6134 163.702C76.3949 164.06 77.241 164.232 78.1588 164.232C79.2916 164.232 80.2739 164.024 81.0913 163.602C81.9087 163.187 82.7189 162.6 83.5076 161.841L84.7409 163.044C84.3178 163.487 83.8661 163.881 83.4001 164.239C82.934 164.59 82.4321 164.897 81.9015 165.148C81.3638 165.398 80.7902 165.599 80.1736 165.735C79.5569 165.878 78.8686 165.949 78.1157 165.949L78.1086 165.956Z" fill="black"/>
<path d="M87.2861 149.138H89.1575V156.481H98.7152V149.138H100.587V165.67H98.7152V158.234H89.1575V165.67H87.2861V149.138Z" fill="black"/>
<path d="M104.559 149.138H106.308L116.741 162.385V149.138H118.562V165.67H117.071L106.373 152.115V165.67H104.552V149.138H104.559Z" fill="black"/>
<path d="M130.228 165.956C128.966 165.956 127.819 165.727 126.786 165.269C125.754 164.811 124.864 164.196 124.126 163.416C123.387 162.636 122.814 161.734 122.412 160.703C122.011 159.673 121.81 158.592 121.81 157.454V157.404C121.81 156.273 122.018 155.185 122.427 154.148C122.835 153.11 123.416 152.201 124.155 151.421C124.893 150.641 125.789 150.018 126.829 149.553C127.869 149.088 129.023 148.859 130.285 148.859C131.547 148.859 132.694 149.088 133.727 149.546C134.759 150.004 135.648 150.619 136.387 151.4C137.125 152.18 137.699 153.081 138.1 154.112C138.502 155.143 138.703 156.223 138.703 157.361V157.411C138.703 158.542 138.495 159.63 138.086 160.668C137.677 161.705 137.097 162.614 136.358 163.394C135.62 164.174 134.723 164.797 133.684 165.262C132.644 165.727 131.49 165.956 130.228 165.956ZM130.278 164.232C131.224 164.232 132.099 164.053 132.895 163.702C133.691 163.344 134.372 162.865 134.938 162.249C135.505 161.634 135.949 160.918 136.279 160.102C136.602 159.286 136.767 158.399 136.767 157.454V157.404C136.767 156.459 136.602 155.572 136.279 154.749C135.957 153.919 135.505 153.203 134.917 152.588C134.336 151.972 133.641 151.485 132.845 151.12C132.049 150.755 131.174 150.577 130.228 150.577C129.281 150.577 128.406 150.755 127.611 151.106C126.815 151.464 126.134 151.943 125.567 152.559C125.001 153.174 124.556 153.89 124.234 154.706C123.911 155.522 123.746 156.409 123.746 157.354V157.404C123.746 158.349 123.911 159.236 124.234 160.059C124.556 160.889 125.008 161.605 125.596 162.221C126.177 162.836 126.872 163.323 127.668 163.688C128.464 164.053 129.339 164.232 130.285 164.232H130.278Z" fill="black"/>
<path d="M141.943 149.138H143.815V163.945H153.136V165.67H141.943V149.138Z" fill="black"/>
<path d="M162.622 165.956C161.36 165.956 160.213 165.727 159.18 165.269C158.148 164.811 157.259 164.196 156.52 163.416C155.782 162.636 155.208 161.734 154.806 160.703C154.405 159.673 154.204 158.592 154.204 157.454V157.404C154.204 156.273 154.412 155.185 154.821 154.148C155.229 153.11 155.81 152.201 156.549 151.421C157.287 150.641 158.183 150.018 159.223 149.553C160.263 149.088 161.417 148.859 162.679 148.859C163.941 148.859 165.088 149.088 166.121 149.546C167.153 150.004 168.042 150.619 168.781 151.4C169.519 152.18 170.093 153.081 170.494 154.112C170.896 155.143 171.097 156.223 171.097 157.361V157.411C171.097 158.542 170.889 159.63 170.48 160.668C170.071 161.705 169.491 162.614 168.752 163.394C168.014 164.174 167.117 164.797 166.078 165.262C165.038 165.727 163.884 165.956 162.622 165.956ZM162.672 164.232C163.618 164.232 164.493 164.053 165.289 163.702C166.085 163.344 166.766 162.865 167.332 162.249C167.899 161.634 168.343 160.918 168.673 160.102C168.996 159.286 169.161 158.399 169.161 157.454V157.404C169.161 156.459 168.996 155.572 168.673 154.749C168.351 153.919 167.899 153.203 167.311 152.588C166.73 151.972 166.035 151.485 165.239 151.12C164.443 150.755 163.568 150.577 162.622 150.577C161.675 150.577 160.801 150.755 160.005 151.106C159.209 151.464 158.528 151.943 157.961 152.559C157.395 153.174 156.95 153.89 156.628 154.706C156.305 155.522 156.14 156.409 156.14 157.354V157.404C156.14 158.349 156.305 159.236 156.628 160.059C156.95 160.889 157.402 161.605 157.99 162.221C158.571 162.836 159.266 163.323 160.062 163.688C160.858 164.053 161.733 164.232 162.679 164.232H162.672Z" fill="black"/>
<path d="M182.024 165.956C180.712 165.956 179.543 165.735 178.511 165.298C177.478 164.854 176.596 164.253 175.858 163.48C175.126 162.707 174.567 161.805 174.18 160.775C173.793 159.744 173.599 158.635 173.599 157.454V157.404C173.599 156.273 173.8 155.185 174.201 154.155C174.603 153.124 175.169 152.215 175.894 151.428C176.618 150.641 177.492 150.018 178.511 149.553C179.529 149.088 180.662 148.859 181.909 148.859C182.605 148.859 183.236 148.909 183.816 149.002C184.39 149.095 184.928 149.238 185.423 149.424C185.917 149.61 186.383 149.847 186.821 150.118C187.251 150.39 187.674 150.705 188.09 151.049L186.885 152.466C186.57 152.18 186.24 151.929 185.889 151.7C185.544 151.471 185.164 151.278 184.763 151.106C184.361 150.942 183.917 150.813 183.436 150.72C182.956 150.627 182.425 150.577 181.838 150.577C180.92 150.577 180.081 150.755 179.306 151.12C178.532 151.485 177.872 151.972 177.32 152.588C176.768 153.203 176.331 153.919 176.023 154.749C175.707 155.579 175.549 156.445 175.549 157.361V157.411C175.549 158.406 175.7 159.315 176.008 160.152C176.317 160.99 176.754 161.712 177.32 162.328C177.887 162.943 178.575 163.423 179.378 163.766C180.181 164.11 181.092 164.289 182.096 164.289C183.042 164.289 183.931 164.131 184.77 163.802C185.609 163.48 186.304 163.087 186.878 162.636V158.528H181.838V156.853H188.678V163.444C187.903 164.139 186.957 164.733 185.824 165.226C184.691 165.72 183.429 165.971 182.024 165.971V165.956Z" fill="black"/>
<path d="M192.342 149.138H194.213V165.67H192.342V149.138Z" fill="black"/>
<path d="M198.35 149.138H210.324V150.841H200.221V156.488H209.263V158.191H200.221V163.974H210.446V165.677H198.357V149.145L198.35 149.138Z" fill="black"/>
<path d="M218.44 149.138H220.52L226.414 163.38L232.329 149.138H234.336L227.217 165.785H225.56L218.44 149.138Z" fill="black"/>
<path d="M236.896 149.138H248.87V150.841H238.768V156.488H247.809V158.191H238.768V163.974H248.992V165.677H236.904V149.145L236.896 149.138Z" fill="black"/>
<path d="M252.04 149.138H259.152C260.178 149.138 261.088 149.281 261.877 149.575C262.673 149.868 263.332 150.269 263.849 150.791C264.257 151.199 264.573 151.679 264.795 152.23C265.017 152.781 265.125 153.389 265.125 154.048V154.098C265.125 154.792 265.017 155.407 264.795 155.951C264.573 156.495 264.264 156.968 263.863 157.368C263.461 157.769 262.988 158.098 262.436 158.363C261.884 158.621 261.289 158.807 260.644 158.921L265.727 165.677H263.433L258.636 159.251H253.918V165.677H252.047V149.145L252.04 149.138ZM258.995 157.569C259.611 157.569 260.178 157.49 260.701 157.333C261.224 157.175 261.669 156.953 262.049 156.66C262.429 156.366 262.723 156.016 262.938 155.601C263.153 155.185 263.261 154.706 263.261 154.169V154.119C263.261 153.096 262.888 152.294 262.149 151.722C261.404 151.149 260.364 150.856 259.023 150.856H253.911V157.562H258.995V157.569Z" fill="black"/>
<path d="M268.438 149.138H275.55C276.576 149.138 277.486 149.281 278.275 149.575C279.071 149.868 279.73 150.269 280.247 150.791C280.655 151.199 280.971 151.679 281.193 152.23C281.415 152.781 281.523 153.389 281.523 154.048V154.098C281.523 154.792 281.415 155.407 281.193 155.951C280.971 156.495 280.662 156.968 280.261 157.368C279.859 157.769 279.386 158.098 278.834 158.363C278.282 158.621 277.687 158.807 277.042 158.921L282.125 165.677H279.831L275.034 159.251H270.316V165.677H268.445V149.145L268.438 149.138ZM275.392 157.569C276.009 157.569 276.576 157.49 277.099 157.333C277.622 157.175 278.067 156.953 278.447 156.66C278.827 156.366 279.121 156.016 279.336 155.601C279.551 155.185 279.659 154.706 279.659 154.169V154.119C279.659 153.096 279.286 152.294 278.547 151.722C277.802 151.149 276.762 150.856 275.421 150.856H270.309V157.562H275.392V157.569Z" fill="black"/>
<path d="M285 149.138H286.871V165.67H285V149.138Z" fill="black"/>
<path d="M291.009 149.138H302.983V150.841H292.88V156.488H301.922V158.191H292.88V163.974H303.105V165.677H291.016V149.145L291.009 149.138ZM296.286 147.671L293.568 145.474L295.411 144.622L297.799 147.671H296.286Z" fill="black"/>
<path d="M306.152 149.138H313.265C314.29 149.138 315.2 149.281 315.989 149.575C316.785 149.868 317.445 150.269 317.961 150.791C318.37 151.199 318.685 151.679 318.907 152.23C319.13 152.781 319.237 153.389 319.237 154.048V154.098C319.237 154.792 319.13 155.407 318.907 155.951C318.685 156.495 318.377 156.968 317.975 157.368C317.574 157.769 317.101 158.098 316.548 158.363C315.996 158.621 315.401 158.807 314.756 158.921L319.839 165.677H317.545L312.748 159.251H308.03V165.677H306.159V149.145L306.152 149.138ZM313.107 157.569C313.723 157.569 314.29 157.49 314.813 157.333C315.337 157.175 315.781 156.953 316.161 156.66C316.541 156.366 316.835 156.016 317.05 155.601C317.265 155.185 317.373 154.706 317.373 154.169V154.119C317.373 153.096 317 152.294 316.262 151.722C315.516 151.149 314.476 150.856 313.135 150.856H308.023V157.562H313.107V157.569Z" fill="black"/>
<path d="M322.542 149.138H334.516V150.841H324.414V156.488H333.455V158.191H324.414V163.974H334.638V165.677H322.55V149.145L322.542 149.138Z" fill="black"/>
<path d="M343.372 165.906C342.045 165.906 340.833 165.692 339.736 165.255C338.639 164.818 337.592 164.153 336.603 163.258L337.765 161.891C338.632 162.679 339.507 163.265 340.389 163.652C341.271 164.038 342.289 164.232 343.443 164.232C344.598 164.232 345.458 163.967 346.132 163.437C346.806 162.908 347.136 162.235 347.136 161.419V161.369C347.136 160.99 347.071 160.646 346.949 160.338C346.828 160.031 346.605 159.752 346.29 159.501C345.974 159.251 345.537 159.022 344.978 158.814C344.418 158.606 343.701 158.413 342.834 158.227C341.887 158.02 341.063 157.783 340.36 157.519C339.657 157.254 339.077 156.925 338.618 156.552C338.159 156.173 337.822 155.737 337.6 155.228C337.377 154.727 337.27 154.133 337.27 153.461V153.411C337.27 152.766 337.406 152.165 337.671 151.614C337.937 151.063 338.317 150.584 338.804 150.183C339.292 149.782 339.865 149.467 340.532 149.238C341.192 149.009 341.923 148.895 342.712 148.895C343.924 148.895 344.985 149.066 345.895 149.403C346.806 149.739 347.681 150.247 348.534 150.927L347.444 152.366C346.67 151.736 345.895 151.278 345.114 150.999C344.332 150.712 343.515 150.577 342.662 150.577C341.572 150.577 340.711 150.834 340.081 151.342C339.45 151.85 339.134 152.487 339.134 153.246V153.296C339.134 153.69 339.199 154.04 339.32 154.348C339.442 154.656 339.672 154.942 340.002 155.2C340.331 155.457 340.79 155.694 341.371 155.908C341.952 156.123 342.698 156.323 343.615 156.509C345.458 156.917 346.813 157.483 347.688 158.213C348.563 158.943 349 159.93 349 161.19V161.24C349 161.949 348.857 162.593 348.577 163.165C348.297 163.738 347.91 164.232 347.415 164.64C346.921 165.048 346.333 165.362 345.637 165.584C344.942 165.806 344.189 165.913 343.364 165.913L343.372 165.906Z" fill="black"/>
<defs>
<clipPath id="clip0_240_22">
<rect width="284" height="74" fill="white"/>
</clipPath>
</defs>
</svg>
